<svg id="home-passport" enable-background="new 0 0 256 256" height="65" viewBox="0 0 256 256" width="65" xmlns="http://www.w3.org/2000/svg"><g><g><path d="m245.833 104.152-111.522-90.725c-3.676-2.99-8.945-2.99-12.621 0l-111.523 90.725c-1.371 1.115-2.167 2.788-2.167 4.556 0 3.244 2.63 5.873 5.873 5.873h16.627v120.234c0 5.523 4.477 10 10 10h175c5.523 0 10-4.477 10-10v-120.234h16.627c3.244 0 5.873-2.63 5.873-5.873 0-1.768-.796-3.441-2.167-4.556z" fill="#feda9b"/></g><g><path d="m215.5 246.815h-175c-6.617 0-12-5.383-12-12v-118.234h-14.627c-4.341 0-7.873-3.532-7.873-7.874 0-2.379 1.059-4.605 2.905-6.107l111.522-90.724c4.387-3.57 10.758-3.57 15.145 0l111.522 90.725c1.847 1.502 2.905 3.728 2.905 6.107 0 4.341-3.532 7.874-7.873 7.874h-14.626v118.234c0 6.616-5.383 11.999-12 11.999zm-87.5-233.621c-1.793 0-3.586.595-5.049 1.785l-111.522 90.724c-.908.739-1.429 1.834-1.429 3.004 0 2.136 1.737 3.874 3.873 3.874h16.627c1.104 0 2 .896 2 2v120.234c0 4.411 3.589 8 8 8h175c4.411 0 8-3.589 8-8v-120.234c0-1.104.896-2 2-2h16.627c2.136 0 3.873-1.738 3.873-3.874 0-1.17-.521-2.266-1.429-3.004l-111.522-90.724c-1.463-1.19-3.256-1.785-5.049-1.785z" fill="#3762cc"/></g><g><path d="m172.75 216.967h-99.5c-2.761 0-5-2.239-5-5v-122.951c0-2.761 2.239-5 5-5h99.5c2.761 0 5 2.239 5 5v122.951c0 2.762-2.239 5-5 5z" fill="#53B374"/></g><g><path d="m172.75 218.967h-99.5c-3.859 0-7-3.14-7-7v-122.951c0-3.86 3.141-7 7-7h99.5c3.859 0 7 3.14 7 7v122.952c0 3.859-3.141 6.999-7 6.999zm-99.5-132.951c-1.654 0-3 1.346-3 3v122.952c0 1.654 1.346 3 3 3h99.5c1.654 0 3-1.346 3-3v-122.952c0-1.654-1.346-3-3-3z" fill="#3762cc"/></g><g><path d="m182.75 208.967h-99.5c-2.761 0-5-2.239-5-5v-122.951c0-2.761 2.239-5 5-5h99.5c2.761 0 5 2.239 5 5v122.951c0 2.762-2.239 5-5 5z" fill="#e0ebfc"/></g><g><path d="m171.108 98.8h-76.216c-2.978 0-5.392-2.414-5.392-5.392 0-2.978 2.414-5.392 5.392-5.392h76.216c2.978 0 5.392 2.414 5.392 5.392 0 2.978-2.414 5.392-5.392 5.392z" fill="#a4c9ff"/></g><g><path d="m171.108 118.8h-76.216c-2.978 0-5.392-2.414-5.392-5.392 0-2.978 2.414-5.392 5.392-5.392h76.216c2.978 0 5.392 2.414 5.392 5.392 0 2.978-2.414 5.392-5.392 5.392z" fill="#a4c9ff"/></g><g><path d="m171.108 138.8h-76.216c-2.978 0-5.392-2.414-5.392-5.392 0-2.978 2.414-5.392 5.392-5.392h76.216c2.978 0 5.392 2.414 5.392 5.392 0 2.978-2.414 5.392-5.392 5.392z" fill="#a4c9ff"/></g><g><path d="m182.75 210.967h-99.5c-3.859 0-7-3.14-7-7v-122.951c0-3.86 3.141-7 7-7h99.5c3.859 0 7 3.14 7 7v122.952c0 3.859-3.141 6.999-7 6.999zm-99.5-132.951c-1.654 0-3 1.346-3 3v122.952c0 1.654 1.346 3 3 3h99.5c1.654 0 3-1.346 3-3v-122.952c0-1.654-1.346-3-3-3z" fill="#3762cc"/></g><g><path d="m164.922 184.121h-7.478c-.553-1.766-1.268-3.489-2.131-5.128l5.292-5.292c.713-.713 1.106-1.661 1.106-2.669s-.393-1.956-1.106-2.669l-7.658-7.658c-.713-.713-1.661-1.105-2.669-1.105s-1.956.393-2.669 1.105l-5.292 5.292c-1.64-.863-3.363-1.578-5.128-2.131v-7.478c0-2.081-1.693-3.774-3.774-3.774h-10.831c-2.081 0-3.774 1.693-3.774 3.774v7.478c-1.765.552-3.488 1.268-5.128 2.131l-5.292-5.292c-.713-.713-1.661-1.105-2.669-1.105s-1.956.393-2.669 1.105l-7.658 7.658c-.713.713-1.106 1.661-1.106 2.669s.393 1.956 1.106 2.669l5.292 5.293c-.863 1.639-1.578 3.362-2.131 5.128h-7.478c-2.081 0-3.774 1.693-3.774 3.774v10.83c0 2.081 1.693 3.774 3.774 3.774h7.478c.553 1.766 1.268 3.488 2.131 5.128l-5.292 5.292c-.713.713-1.106 1.661-1.106 2.669 0 1.009.393 1.956 1.106 2.669l7.658 7.658c.713.713 1.661 1.105 2.669 1.105s1.956-.392 2.669-1.105l5.292-5.292c1.64.863 3.363 1.579 5.128 2.131v7.478c0 2.081 1.693 3.774 3.774 3.774h10.831c2.081 0 3.774-1.693 3.774-3.774v-7.478c1.765-.552 3.488-1.268 5.128-2.131l5.292 5.292c.713.713 1.661 1.105 2.669 1.105s1.956-.392 2.669-1.105l7.658-7.658c.713-.713 1.106-1.661 1.106-2.669s-.393-1.956-1.106-2.669l-5.292-5.292c.863-1.64 1.578-3.363 2.131-5.128h7.478c2.081 0 3.774-1.693 3.774-3.774v-10.83c0-2.082-1.693-3.775-3.774-3.775zm-36.922 27.313c-9.993 0-18.123-8.13-18.123-18.123s8.13-18.124 18.123-18.124 18.123 8.13 18.123 18.124c0 9.993-8.13 18.123-18.123 18.123z" fill="#53B374"/></g><g><path d="m127.999 172.522c-11.462 0-20.787 9.326-20.787 20.788 0 11.463 9.326 20.79 20.787 20.79 11.463 0 20.789-9.326 20.789-20.79 0-11.463-9.326-20.788-20.789-20.788zm0 32.856c-6.654 0-12.067-5.414-12.067-12.068 0-6.653 5.413-12.066 12.067-12.066 6.655 0 12.068 5.413 12.068 12.066 0 6.654-5.413 12.068-12.068 12.068z" fill="#ffea92"/></g><g><path d="m133.415 236.007h-10.83c-3.184 0-5.774-2.59-5.774-5.774v-6.043c-.926-.336-1.838-.716-2.73-1.134l-4.275 4.275c-1.09 1.091-2.54 1.691-4.083 1.691s-2.993-.601-4.084-1.692l-7.657-7.658c-1.091-1.089-1.691-2.54-1.691-4.083 0-1.542.601-2.992 1.69-4.083l4.276-4.276c-.419-.893-.798-1.805-1.135-2.73h-6.043c-3.184 0-5.774-2.59-5.774-5.774v-10.83c0-3.184 2.591-5.774 5.774-5.774h6.043c.337-.926.716-1.838 1.135-2.73l-4.275-4.276c-1.091-1.089-1.691-2.54-1.691-4.083 0-1.542.601-2.993 1.691-4.083l7.658-7.658c1.091-1.091 2.541-1.691 4.083-1.691s2.992.601 4.083 1.691l4.275 4.275c.893-.419 1.805-.798 2.73-1.134v-6.043c0-3.184 2.591-5.774 5.774-5.774h10.83c3.184 0 5.774 2.59 5.774 5.774v6.043c.926.336 1.838.716 2.73 1.134l4.275-4.275c1.091-1.091 2.541-1.691 4.083-1.691s2.992.601 4.083 1.691l7.658 7.658c1.091 1.09 1.691 2.541 1.691 4.083s-.601 2.993-1.691 4.083l-4.275 4.276c.419.893.798 1.805 1.135 2.73h6.043c3.184 0 5.774 2.59 5.774 5.774v10.83c0 3.184-2.591 5.774-5.774 5.774h-6.043c-.337.926-.716 1.838-1.135 2.73l4.275 4.276c1.091 1.09 1.691 2.541 1.691 4.083 0 1.543-.601 2.994-1.691 4.083l-7.658 7.658c-1.09 1.091-2.54 1.691-4.083 1.691s-2.993-.601-4.084-1.692l-4.274-4.275c-.893.419-1.805.798-2.73 1.135v6.043c0 3.185-2.59 5.775-5.774 5.775zm-19.731-17.383c.316 0 .636.075.931.23 1.531.806 3.145 1.476 4.793 1.992.835.261 1.403 1.034 1.403 1.909v7.478c0 .979.796 1.774 1.774 1.774h10.83c.979 0 1.774-.796 1.774-1.774v-7.478c0-.875.568-1.647 1.402-1.909 1.648-.516 3.262-1.186 4.795-1.992.776-.409 1.725-.264 2.345.356l5.292 5.292c.68.68 1.831.679 2.509 0l7.659-7.659c.34-.34.52-.774.52-1.255 0-.48-.18-.914-.52-1.254l-5.292-5.292c-.619-.619-.764-1.57-.356-2.345.806-1.531 1.476-3.144 1.993-4.794.261-.834 1.034-1.402 1.908-1.402h7.478c.979 0 1.774-.796 1.774-1.774v-10.83c0-.979-.796-1.774-1.774-1.774h-7.478c-.874 0-1.647-.568-1.908-1.402-.517-1.65-1.188-3.263-1.993-4.794-.407-.775-.263-1.726.356-2.345l5.292-5.292c.34-.34.52-.774.52-1.255s-.18-.915-.52-1.255l-7.658-7.658c-.68-.68-1.83-.68-2.51 0l-5.292 5.292c-.618.619-1.567.765-2.346.356-1.531-.806-3.145-1.476-4.793-1.992-.835-.261-1.403-1.034-1.403-1.909v-7.478c0-.978-.796-1.774-1.774-1.774h-10.83c-.979 0-1.774.796-1.774 1.774v7.478c0 .875-.568 1.648-1.403 1.909-1.648.516-3.261 1.186-4.793 1.992-.778.409-1.729.263-2.346-.356l-5.292-5.292c-.68-.68-1.83-.68-2.51 0l-7.658 7.658c-.34.34-.52.774-.52 1.255s.18.915.52 1.254l5.292 5.293c.619.62.764 1.57.356 2.345-.806 1.532-1.477 3.145-1.993 4.794-.261.834-1.034 1.402-1.908 1.402h-7.478c-.979 0-1.774.796-1.774 1.774v10.83c0 .979.796 1.774 1.774 1.774h7.478c.874 0 1.647.568 1.908 1.402.517 1.65 1.188 3.263 1.993 4.794.407.775.263 1.726-.356 2.345l-5.292 5.292c-.34.34-.52.774-.52 1.255s.18.915.52 1.254l7.658 7.659c.68.68 1.831.679 2.509 0l5.293-5.292c.383-.385.896-.586 1.415-.586z" fill="#3762cc"/></g><g><path d="m127.999 216.099c-12.564 0-22.787-10.223-22.787-22.79 0-12.565 10.223-22.788 22.787-22.788 12.566 0 22.789 10.223 22.789 22.788 0 12.567-10.223 22.79-22.789 22.79zm0-41.577c-10.359 0-18.787 8.428-18.787 18.788 0 10.361 8.428 18.79 18.787 18.79 10.36 0 18.789-8.429 18.789-18.79 0-10.36-8.429-18.788-18.789-18.788zm0 32.856c-7.757 0-14.067-6.311-14.067-14.068 0-7.756 6.311-14.066 14.067-14.066s14.068 6.31 14.068 14.066c0 7.757-6.311 14.068-14.068 14.068zm0-24.135c-5.551 0-10.067 4.516-10.067 10.066 0 5.552 4.517 10.068 10.067 10.068 5.552 0 10.068-4.517 10.068-10.068 0-5.55-4.516-10.066-10.068-10.066z" fill="#3762cc"/></g></g></svg>